<?xml version="1.0" standalone="no"?>
<!DOCTYPE svg PUBLIC "-//W3C//DTD SVG 20010904//EN"
 "http://www.w3.org/TR/2001/REC-SVG-20010904/DTD/svg10.dtd">
<svg version="1.0" xmlns="http://www.w3.org/2000/svg"
 width="1079.000000pt" height="1079.000000pt" viewBox="0 0 1079.000000 1079.000000"
 preserveAspectRatio="xMidYMid meet">
<metadata>
Created by potrace 1.14, written by Peter Selinger 2001-2017
</metadata>
<g transform="translate(0.000000,1079.000000) scale(0.100000,-0.100000)"
fill="#000000" stroke="none">
<path d="M9499 8096 c-2 -2 -40 -6 -84 -10 -79 -6 -226 -23 -275 -31 -14 -2
-70 -11 -125 -20 -125 -20 -111 -17 -295 -55 -85 -18 -166 -34 -180 -36 -30
-6 -151 -39 -235 -64 -33 -10 -91 -28 -130 -39 -461 -134 -1041 -326 -1295
-429 -75 -31 -75 -31 -90 -11 -81 110 -139 143 -250 144 -118 0 -192 -49 -246
-163 -39 -82 -42 -163 -7 -232 57 -114 154 -177 253 -165 185 23 261 102 276
285 7 87 6 84 55 99 24 7 58 19 74 26 51 23 515 172 592 190 10 3 88 23 173
46 130 34 445 111 515 125 11 2 45 9 75 14 30 6 78 18 105 25 198 55 768 78
970 40 192 -37 319 -136 365 -284 53 -170 -30 -342 -340 -703 -92 -108 -27
-98 -627 -102 -290 -3 -602 -5 -693 -5 l-165 -1 -54 -82 c-30 -46 -64 -95 -75
-109 -12 -14 -37 -46 -56 -70 -110 -137 -330 -357 -518 -518 l-72 -62 -61 3
-61 3 113 101 c188 167 338 321 497 509 18 21 103 138 141 193 l22 32 -3223 0
c-2720 -1 -3234 -3 -3295 -15 -260 -51 -611 -195 -779 -322 -162 -122 -210
-184 -293 -379 l-41 -95 0 -447 c0 -515 0 -514 93 -712 98 -209 388 -451 675
-563 48 -19 105 -38 127 -42 22 -5 47 -10 55 -12 8 -1 33 -5 55 -8 22 -3 73
-10 112 -16 50 -7 355 -8 953 -4 l881 5 127 62 c341 164 445 213 562 266 25
11 95 44 155 72 120 57 575 260 581 260 2 0 23 9 47 19 23 11 78 34 122 51 44
18 89 35 100 40 11 4 38 15 60 23 40 16 156 50 206 61 19 4 32 -1 49 -19 21
-22 32 -25 91 -25 74 0 78 3 73 62 -4 42 -19 35 156 78 47 12 92 23 101 26 9
2 34 -10 58 -30 l41 -34 -32 -10 c-18 -6 -60 -18 -93 -27 -98 -27 -582 -184
-685 -222 -351 -128 -640 -245 -930 -375 -45 -20 -331 -163 -469 -235 l-75
-38 874 -5 873 -5 -59 -24 c-32 -13 -84 -35 -114 -48 -30 -14 -100 -43 -155
-64 -55 -22 -109 -44 -120 -49 -20 -10 -280 -111 -344 -134 -20 -7 -103 -38
-186 -68 -420 -155 -1072 -358 -1295 -403 -8 -2 -42 -10 -75 -19 -93 -24 -349
-78 -430 -91 -27 -5 -52 -9 -55 -10 -6 -2 -110 -18 -130 -20 -8 -1 -38 -5 -65
-9 -153 -22 -271 -30 -425 -30 -162 1 -355 14 -420 29 -3 1 -21 5 -40 9 -60
14 -126 53 -164 97 -45 53 -68 122 -75 224 l-6 80 -42 -85 c-23 -47 -65 -143
-93 -214 -43 -109 -50 -136 -46 -175 13 -114 72 -244 139 -305 18 -16 68 -46
112 -66 94 -45 140 -58 265 -78 59 -9 521 -8 630 1 106 10 369 50 498 77 53
11 109 23 124 25 60 11 574 145 723 189 88 26 165 49 170 50 6 2 17 6 25 9 8
3 110 35 225 72 175 55 456 161 715 270 78 32 245 102 460 190 174 72 264 110
335 141 17 7 53 22 80 34 27 12 63 27 80 35 16 7 84 37 150 65 116 51 333 156
405 197 59 34 138 81 167 100 26 17 109 18 1793 18 l1765 0 90 31 c523 183
818 421 895 720 6 25 12 253 16 576 5 528 5 534 -16 583 -57 133 -192 282
-357 392 -96 64 -258 147 -356 183 l-28 10 73 76 c40 42 82 86 93 98 11 12 47
53 80 91 33 39 62 72 65 75 15 14 111 153 142 205 88 147 151 333 152 450 2
169 -12 212 -91 286 -76 72 -162 119 -278 153 -61 18 -103 20 -336 22 -147 2
-268 1 -270 0z m-2615 -2365 c3 -5 -8 -19 -25 -32 -17 -13 -36 -28 -43 -34
-60 -51 -139 -104 -147 -100 -5 4 -8 2 -7 -3 4 -14 -111 -94 -123 -86 -5 3 -7
10 -4 15 4 5 2 9 -3 9 -14 0 -7 43 9 48 8 3 46 29 84 57 124 93 187 131 221
133 18 2 35 -2 38 -7z m-550 -343 c-1 -13 -3 -25 -3 -28 -1 -8 -61 -42 -61
-35 0 3 -9 -3 -20 -13 -24 -22 -150 -88 -162 -84 -4 1 -8 -2 -8 -6 0 -5 -19
-15 -42 -22 -24 -7 -45 -15 -48 -19 -13 -16 -71 -41 -82 -35 -7 4 -8 3 -4 -4
11 -18 -41 -26 -85 -13 -44 13 -52 31 -14 31 14 0 25 5 25 10 0 6 7 10 15 10
8 0 44 14 78 30 35 17 67 30 70 30 3 0 29 14 57 30 28 17 56 27 62 24 7 -5 8
-2 3 6 -6 10 -4 12 8 7 9 -3 18 0 21 9 3 9 10 13 15 10 5 -4 11 -2 13 2 4 11
151 91 159 86 3 -2 5 -13 3 -26z"/>
<path d="M5560 3490 c0 -5 11 -10 24 -10 13 0 28 -6 33 -12 6 -8 10 -100 10
-221 0 -194 -1 -208 -19 -218 -36 -20 -6 -29 95 -29 80 0 111 5 146 20 71 32
101 77 101 149 0 51 -29 85 -85 101 l-45 13 39 19 c22 11 46 33 56 53 16 29
17 39 6 74 -18 61 -50 71 -222 71 -86 0 -139 -4 -139 -10z m248 -31 c61 -21
63 -123 3 -153 -14 -7 -47 -14 -72 -15 l-46 -2 3 83 c1 46 3 86 3 91 1 11 74
9 109 -4z m29 -223 c25 -16 34 -30 38 -61 10 -64 -16 -114 -70 -135 -31 -12
-104 -13 -106 -2 -4 23 -5 208 -2 215 9 16 108 5 140 -17z"/>
<path d="M6804 3492 c-30 -21 -16 -72 21 -72 22 0 45 29 38 48 -7 19 -23 32
-38 32 -5 0 -15 -4 -21 -8z"/>
<path d="M8494 3448 c1 -63 21 -75 30 -18 l6 41 68 -3 67 -3 1 -205 c1 -113
-3 -213 -8 -222 -5 -10 -20 -18 -33 -18 -13 0 -27 -4 -30 -10 -4 -6 33 -10
104 -10 67 0 111 4 111 10 0 6 -14 10 -30 10 -23 0 -33 6 -38 23 -7 18 -9 338
-3 410 1 14 11 17 66 17 45 0 65 -4 66 -12 1 -7 2 -17 4 -23 1 -5 3 -18 3 -28
1 -10 8 -17 14 -15 7 3 13 26 14 56 l2 52 -207 0 -207 0 0 -52z"/>
<path d="M6082 3329 c-13 -5 -35 -11 -49 -14 -42 -7 -52 -25 -15 -25 l32 0 0
-121 c0 -120 0 -121 29 -150 44 -43 116 -39 168 10 28 27 32 26 28 -4 -2 -24
-1 -25 62 -25 40 0 62 4 58 10 -3 6 -15 10 -26 10 -11 0 -23 10 -28 23 -7 20
-5 222 3 275 3 24 -5 27 -32 13 -9 -5 -31 -11 -49 -14 -52 -8 -63 -21 -23 -27
l35 -5 1 -96 c2 -101 -3 -114 -48 -143 -20 -13 -38 -16 -62 -12 -50 10 -59 41
-54 181 3 64 2 117 -1 119 -3 2 -16 0 -29 -5z"/>
<path d="M6493 3323 c-35 -17 -53 -49 -53 -93 0 -42 34 -70 103 -84 12 -3 33
-7 47 -10 88 -19 47 -123 -45 -113 -22 2 -48 8 -57 12 -17 7 -20 12 -22 44 -1
8 -7 16 -14 19 -17 5 -16 -84 1 -95 22 -14 139 -12 168 3 61 31 88 110 52 152
-11 12 -47 27 -88 37 -81 20 -95 29 -95 61 0 34 41 58 86 51 43 -7 64 -23 64
-49 0 -36 24 -12 25 25 1 34 -1 38 -34 47 -50 14 -101 11 -138 -7z"/>
<path d="M6838 3335 c-3 -3 -16 -8 -29 -11 -13 -3 -31 -7 -39 -9 -8 -2 -22 -4
-29 -4 -23 -1 0 -19 29 -23 l25 -3 1 -120 c1 -110 -5 -154 -20 -147 -14 6 -36
1 -36 -8 0 -13 167 -13 174 -1 4 5 -7 12 -24 16 -34 8 -34 3 -31 198 1 105 -4
129 -21 112z"/>
<path d="M7010 3327 c-43 -16 -47 -17 -60 -17 -23 0 -8 -19 18 -22 l27 -3 0
-130 0 -130 -27 -3 c-16 -2 -28 -8 -28 -13 0 -5 41 -9 90 -9 50 0 90 4 90 9 0
5 -12 11 -27 13 l-28 3 -3 113 c-3 111 -2 113 24 137 36 34 86 34 120 0 25
-25 25 -28 22 -150 l-3 -125 63 0 c34 0 62 4 62 10 0 6 -11 10 -24 10 -13 0
-26 7 -30 15 -3 8 -5 64 -5 125 0 125 -11 152 -67 170 -46 15 -96 5 -134 -26
-31 -26 -34 -25 -30 14 2 25 -2 26 -50 9z"/>
<path d="M7457 3315 c-54 -30 -80 -76 -83 -144 -6 -140 85 -207 231 -170 24 6
46 18 50 26 8 23 0 26 -27 10 -30 -20 -107 -16 -141 6 -17 11 -32 34 -40 65
-8 26 -14 48 -13 49 1 1 49 3 106 4 123 2 139 7 134 47 -9 75 -45 119 -106
126 -59 7 -68 6 -111 -19z m107 -16 c24 -12 46 -54 46 -90 0 -17 -9 -19 -86
-19 l-87 0 6 36 c11 69 62 99 121 73z"/>
<path d="M7773 3323 c-35 -17 -53 -49 -53 -93 0 -44 36 -72 110 -85 47 -8 80
-24 86 -40 18 -46 -33 -91 -92 -82 -44 7 -74 18 -75 28 -1 5 -3 14 -4 19 -1 6
-3 15 -4 21 0 5 -5 7 -11 4 -14 -8 -13 -82 1 -91 23 -14 142 -13 170 1 68 36
91 116 44 159 -13 12 -30 23 -37 23 -7 0 -24 3 -38 6 -14 3 -36 8 -49 11 -53
12 -67 50 -30 87 37 37 129 13 129 -33 0 -35 24 -13 25 24 2 33 0 36 -35 47
-51 15 -99 13 -137 -6z"/>
<path d="M8083 3323 c-53 -27 -71 -100 -33 -140 11 -13 44 -27 77 -34 32 -6
68 -18 81 -26 55 -34 2 -108 -73 -100 -47 5 -74 15 -76 28 -1 5 -3 14 -4 19
-1 6 -3 15 -4 21 0 5 -5 7 -11 4 -5 -3 -10 -26 -10 -50 l0 -43 63 -6 c34 -4
69 -5 77 -3 66 16 110 61 110 112 0 50 -26 72 -104 90 -38 8 -76 20 -83 26
-35 29 2 89 55 89 37 0 82 -28 82 -51 0 -12 5 -19 13 -16 6 2 12 19 12 38 0
28 -5 36 -29 47 -38 16 -104 14 -143 -5z"/>
<path d="M9045 3326 c-77 -40 -105 -90 -101 -178 5 -106 77 -167 183 -155 58
6 103 25 103 44 0 16 -8 16 -40 -2 -61 -35 -141 -8 -170 57 -28 63 -22 68 86
69 52 1 99 3 104 4 6 1 16 3 24 4 18 1 13 58 -9 105 -27 57 -119 83 -180 52z
m104 -36 c12 -9 23 -33 27 -57 l7 -43 -87 0 c-86 0 -86 0 -86 26 0 29 16 64
39 81 21 17 75 13 100 -7z"/>
<path d="M9372 3319 c-47 -24 -58 -39 -47 -66 6 -17 7 -17 21 2 43 59 66 68
118 44 34 -16 50 -63 29 -81 -9 -7 -18 -11 -20 -9 -6 6 -74 -10 -113 -26 -76
-32 -89 -154 -20 -183 41 -17 84 -6 132 31 34 27 39 29 38 13 -5 -41 -1 -44
50 -44 28 0 50 5 50 10 0 6 -9 10 -20 10 -11 0 -20 6 -21 13 -1 6 -2 59 -4
117 -3 122 -13 153 -54 175 -41 21 -88 19 -139 -6z m133 -181 c1 -48 -14 -76
-52 -97 -47 -24 -89 -6 -97 43 -6 36 36 79 91 94 53 14 57 11 58 -40z"/>
<path d="M9731 3329 c-13 -5 -35 -10 -48 -11 -13 -2 -29 -8 -35 -15 -8 -10 -3
-13 21 -13 17 0 32 -3 32 -7 6 -37 4 -223 -3 -240 -4 -14 -16 -23 -27 -23 -11
0 -23 -4 -26 -10 -4 -6 26 -10 84 -10 49 0 93 5 96 10 3 6 -4 10 -18 10 -14 0
-29 6 -34 13 -5 6 -9 59 -8 116 1 100 3 105 29 128 45 39 106 27 123 -24 11
-32 10 -203 -1 -221 -4 -7 -18 -12 -32 -12 -14 0 -22 -4 -19 -10 3 -5 44 -10
90 -10 46 0 87 5 90 10 4 6 -5 10 -20 10 -17 0 -28 7 -34 23 -6 18 -8 123 -2
199 2 27 42 58 74 58 69 0 80 -28 79 -192 l0 -108 59 0 c61 0 79 13 31 23
l-28 6 1 103 c1 124 -6 156 -42 185 -45 37 -107 29 -160 -19 l-22 -20 -25 28
c-34 41 -105 41 -157 1 l-37 -28 3 31 c3 33 2 33 -34 19z"/>
</g>
</svg>
